<svg xmlns="http://www.w3.org/2000/svg" viewBox="0 0 217.29 152.7"><defs><style>.cls-1,.cls-3,.cls-5,.cls-6{fill:none;}.cls-1,.cls-2,.cls-3,.cls-4,.cls-5,.cls-6{stroke:#fff;stroke-miterlimit:10;}.cls-1{stroke-width:3px;fill-rule:evenodd;}.cls-2{fill:#fff;stroke-width:1.46px;}.cls-3,.cls-4{stroke-width:5px;}.cls-4{fill:#005c99;}.cls-5{stroke-width:2px;}</style></defs><title>Fichier 6ico4</title><g id="Calque_2" data-name="Calque 2"><g id="Calque_1-2" data-name="Calque 1"><polygon class="cls-1" points="56.79 151.2 56.79 72.2 81.79 72.2 99.79 54.2 181.79 54.2 191.79 69.2 215.79 69.2 215.79 151.2 56.79 151.2"/><rect class="cls-2" x="60.29" y="56.7" width="17" height="17"/><circle class="cls-3" cx="136.29" cy="104.7" r="29"/><circle class="cls-4" cx="168.29" cy="70.7" r="5"/><line class="cls-5" x1="34.79" y1="31.2" x2="42.79" y2="49.2"/><line class="cls-5" x1="52.79" y1="23.2" x2="60.79" y2="41.2"/><line class="cls-5" x1="68.79" y1="0.2" x2="76.79" y2="40.2"/><line class="cls-5" x1="116.74" y1="90.7" x2="152.84" y2="109.69"/><line class="cls-5" x1="122.79" y1="105.2" x2="145.79" y2="119.2"/><polygon class="cls-6" points="54.69 65.39 32.7 71.21 29.86 91.16 23.65 70.47 2.4 67.46 14.25 64.07 21.96 61.06 23.84 53.73 27.79 41.13 33.06 59.37 54.69 65.39"/></g></g></svg>