<svg xmlns="http://www.w3.org/2000/svg" viewBox="0 0 851.78 824.36"><defs><style>.cls-1{fill:#ffc603;}</style></defs><title>Fichier 1motif-fond-akab</title><g id="Calque_2" data-name="Calque 2"><g id="Calque_1-2" data-name="Calque 1"><path class="cls-1" d="M486.62,0c-25.78,48.21-29.84,57.82-52.95,102.85,14.1,7.46,49.86,25,88.7,68.6C617.91,278.71,622.08,376,624.58,406.29c6.47-13.66,31.82-168.58-28.1-290.08C563.76,49.86,509.15,10.48,486.62,0Z"/><path class="cls-1" d="M535.88,263.9c-60.5-97.72-164.16-143.78-208.55-153.52C272.7,187.81,188.51,302.3,139.22,374.66c52.34,5.32,114.29,2.5,208.07,53.81,118.86,65,193,194.49,209.59,247.78C563,649.21,637.07,427.35,535.88,263.9ZM384.1,381.24a86.14,86.14,0,1,1,86.13-86.13A86.13,86.13,0,0,1,384.1,381.24Z"/><rect class="cls-1" y="722.29" width="851.78" height="102.07"/></g></g></svg>