<svg width="138" height="138" viewBox="0 0 138 138" fill="none" xmlns="http://www.w3.org/2000/svg">
<path d="M38.333 38.3333H45.9997V45.9999H38.333V38.3333ZM38.333 91.9999H45.9997V99.6666H38.333V91.9999ZM91.9997 38.3333H99.6663V45.9999H91.9997V38.3333Z" fill="black"/>
<path d="M23 23H115V115H23V23Z" fill="white" stroke="black" stroke-width="2" stroke-linejoin="round"/>
<path d="M38.333 38.3333H45.9997V45.9999H38.333V38.3333ZM38.333 91.9999H45.9997V99.6666H38.333V91.9999ZM91.9997 38.3333H99.6663V45.9999H91.9997V38.3333Z" fill="#3F3F3F" stroke="black" stroke-width="2" stroke-linejoin="round"/>
<path d="M34.4997 78.5833C35.5582 78.5833 36.4163 77.7252 36.4163 76.6667C36.4163 75.6081 35.5582 74.75 34.4997 74.75C33.4411 74.75 32.583 75.6081 32.583 76.6667C32.583 77.7252 33.4411 78.5833 34.4997 78.5833Z" fill="black"/>
<path d="M30.6667 74.7501C31.7252 74.7501 32.5833 73.892 32.5833 72.8334C32.5833 71.7749 31.7252 70.9167 30.6667 70.9167C29.6081 70.9167 28.75 71.7749 28.75 72.8334C28.75 73.892 29.6081 74.7501 30.6667 74.7501Z" fill="black"/>
<path d="M38.3337 74.7501C39.3922 74.7501 40.2503 73.892 40.2503 72.8334C40.2503 71.7749 39.3922 70.9167 38.3337 70.9167C37.2751 70.9167 36.417 71.7749 36.417 72.8334C36.417 73.892 37.2751 74.7501 38.3337 74.7501Z" fill="black"/>
<path d="M65.1667 90.0833C66.2252 90.0833 67.0833 89.2252 67.0833 88.1667C67.0833 87.1081 66.2252 86.25 65.1667 86.25C64.1081 86.25 63.25 87.1081 63.25 88.1667C63.25 89.2252 64.1081 90.0833 65.1667 90.0833Z" fill="black"/>
<path d="M76.6667 74.7501C77.7252 74.7501 78.5833 73.892 78.5833 72.8334C78.5833 71.7749 77.7252 70.9167 76.6667 70.9167C75.6081 70.9167 74.75 71.7749 74.75 72.8334C74.75 73.892 75.6081 74.7501 76.6667 74.7501Z" fill="black"/>
<path d="M76.6667 55.5833C77.7252 55.5833 78.5833 54.7252 78.5833 53.6667C78.5833 52.6081 77.7252 51.75 76.6667 51.75C75.6081 51.75 74.75 52.6081 74.75 53.6667C74.75 54.7252 75.6081 55.5833 76.6667 55.5833Z" fill="black"/>
<path d="M61.3337 32.5833C62.3922 32.5833 63.2503 31.7252 63.2503 30.6667C63.2503 29.6081 62.3922 28.75 61.3337 28.75C60.2751 28.75 59.417 29.6081 59.417 30.6667C59.417 31.7252 60.2751 32.5833 61.3337 32.5833Z" fill="black"/>
<path d="M88.1667 63.2501C89.2252 63.2501 90.0833 62.392 90.0833 61.3334C90.0833 60.2749 89.2252 59.4167 88.1667 59.4167C87.1081 59.4167 86.25 60.2749 86.25 61.3334C86.25 62.392 87.1081 63.2501 88.1667 63.2501Z" fill="black"/>
<path d="M99.6667 63.2501C100.725 63.2501 101.583 62.392 101.583 61.3334C101.583 60.2749 100.725 59.4167 99.6667 59.4167C98.6081 59.4167 97.75 60.2749 97.75 61.3334C97.75 62.392 98.6081 63.2501 99.6667 63.2501Z" fill="black"/>
<path d="M99.6667 86.2501C100.725 86.2501 101.583 85.392 101.583 84.3334C101.583 83.2749 100.725 82.4167 99.6667 82.4167C98.6081 82.4167 97.75 83.2749 97.75 84.3334C97.75 85.392 98.6081 86.2501 99.6667 86.2501Z" fill="black"/>
<path d="M103.5 93.9166C104.558 93.9166 105.416 93.0585 105.416 91.9999C105.416 90.9414 104.558 90.0833 103.5 90.0833C102.441 90.0833 101.583 90.9414 101.583 91.9999C101.583 93.0585 102.441 93.9166 103.5 93.9166Z" fill="black"/>
<path d="M107.334 109.25C108.392 109.25 109.25 108.392 109.25 107.333C109.25 106.275 108.392 105.417 107.334 105.417C106.275 105.417 105.417 106.275 105.417 107.333C105.417 108.392 106.275 109.25 107.334 109.25Z" fill="black"/>
<path d="M61.3337 109.25C62.3922 109.25 63.2503 108.392 63.2503 107.333C63.2503 106.275 62.3922 105.417 61.3337 105.417C60.2751 105.417 59.417 106.275 59.417 107.333C59.417 108.392 60.2751 109.25 61.3337 109.25Z" fill="black"/>
<path d="M84.3337 109.25C85.3922 109.25 86.2503 108.392 86.2503 107.333C86.2503 106.275 85.3922 105.417 84.3337 105.417C83.2751 105.417 82.417 106.275 82.417 107.333C82.417 108.392 83.2751 109.25 84.3337 109.25Z" fill="black"/>
<path d="M88.1667 105.417C89.2252 105.417 90.0833 104.558 90.0833 103.5C90.0833 102.441 89.2252 101.583 88.1667 101.583C87.1081 101.583 86.25 102.441 86.25 103.5C86.25 104.558 87.1081 105.417 88.1667 105.417Z" fill="black"/>
<path d="M84.3337 101.583C85.3922 101.583 86.2503 100.725 86.2503 99.6667C86.2503 98.6081 85.3922 97.75 84.3337 97.75C83.2751 97.75 82.417 98.6081 82.417 99.6667C82.417 100.725 83.2751 101.583 84.3337 101.583Z" fill="black"/>
<path d="M30.6667 63.2501C31.7252 63.2501 32.5833 62.392 32.5833 61.3334C32.5833 60.2749 31.7252 59.4167 30.6667 59.4167C29.6081 59.4167 28.75 60.2749 28.75 61.3334C28.75 62.392 29.6081 63.2501 30.6667 63.2501Z" fill="black"/>
<path d="M76.6667 105.417C77.7252 105.417 78.5833 104.558 78.5833 103.5C78.5833 102.441 77.7252 101.583 76.6667 101.583C75.6081 101.583 74.75 102.441 74.75 103.5C74.75 104.558 75.6081 105.417 76.6667 105.417Z" fill="black"/>
<path d="M23 23H115V115H23V23Z" stroke="black" stroke-width="2" stroke-linejoin="round"/>
<path d="M30.667 30.6667H53.667V53.6667H30.667V30.6667Z" stroke="black" stroke-width="2" stroke-linejoin="round"/>
<path d="M38.3337 38.3333H46.0003V45.9999H38.3337V38.3333ZM30.667 84.3333H53.667V107.333H30.667V84.3333Z" stroke="black" stroke-width="2" stroke-linejoin="round"/>
<path d="M38.333 92.0001H45.9997V99.6667H38.333V92.0001ZM84.333 30.6667H107.333V53.6667H84.333V30.6667Z" stroke="black" stroke-width="2" stroke-linejoin="round"/>
<path d="M92 38.3333H99.6667V45.9999H92V38.3333Z" stroke="black" stroke-width="2" stroke-linejoin="round"/>
<path d="M34.5 69.0001V65.1667H49.8333M38.3333 65.1667V61.3334M46 65.1667V76.6667M46 72.8334H49.8333M72.8333 61.3334V57.5001M107.333 65.1667H103.5M80.5 80.5001H84.3333V76.6667M53.6667 61.3334H57.5M65.1667 61.3334H76.6667M72.8333 30.6667V38.3334H69V53.6667M69 49.8334H61.3333V53.6667M69 38.3334H61.3333" stroke="black" stroke-width="2" stroke-linecap="round" stroke-linejoin="round"/>
<path d="M69.0003 42.1667H65.167V34.5M53.667 69H69.0003M57.5003 69V76.6667H53.667M65.167 69V72.8333M61.3337 84.3333V80.5H72.8337V92H80.5003V88.1667H95.8337V107.333" stroke="black" stroke-width="2" stroke-linecap="round" stroke-linejoin="round"/>
<path d="M68.9997 76.6667V84.3334H80.4997M88.1663 76.6667H80.4997V92.0001H84.333M91.9997 65.1667V72.8334H95.833V80.5001H91.9997V88.1667M95.833 72.8334V69.0001H99.6663M99.6663 95.8334H91.9997V99.6667M61.333 99.6667H65.1663V103.5H68.9997V95.8334M107.333 61.3334V72.8334H103.5M84.333 69.0001V65.1667M107.333 80.5001V84.3334M103.5 99.6667H107.333M76.6663 42.1667V46.0001" stroke="black" stroke-width="2" stroke-linecap="round" stroke-linejoin="round"/>
</svg>
